<svg width="405" height="345" viewBox="0 0 405 345" fill="none" xmlns="http://www.w3.org/2000/svg">
<mask id="mask0_7998_243" style="mask-type:alpha" maskUnits="userSpaceOnUse" x="0" y="0" width="405" height="345">
<rect width="405" height="345" rx="10" fill="url(#paint0_linear_7998_243)"/>
</mask>
<g mask="url(#mask0_7998_243)">
<path d="M260.837 520.33C254.67 526.496 245.141 526.496 238.974 520.33L138.632 420.548C132.465 414.382 132.465 404.852 138.632 398.686L351.089 185.668C357.255 179.501 366.785 179.501 372.951 185.668L473.294 286.01C479.46 292.177 479.46 301.706 473.294 307.873L260.837 520.33Z" fill="#FFC200"/>
<path d="M253.997 331.622C262.309 323.296 268.691 316.192 268.253 315.755C267.815 315.317 260.722 321.712 252.41 330.038C244.098 338.364 237.716 345.468 238.154 345.905C238.592 346.343 245.685 339.948 253.997 331.622Z" fill="#FFDA00"/>
<path d="M252.243 331.585C260.577 339.891 267.688 346.268 268.125 345.829C268.562 345.391 262.16 338.302 253.825 329.997C245.491 321.692 238.38 315.315 237.943 315.753C237.506 316.192 243.908 323.28 252.243 331.585Z" fill="#FFDA00"/>
<path d="M355.68 158.41C355.68 180.272 354.559 198.211 353.438 198.211C352.316 198.211 351.195 180.272 351.195 158.41C351.195 136.548 352.316 118.609 353.438 118.609C354.559 118.609 355.68 136.548 355.68 158.41Z" fill="#FFDA00"/>
<path d="M353.435 160.653C375.417 160.653 393.236 159.649 393.236 158.41C393.236 157.172 375.417 156.168 353.435 156.168C331.454 156.168 313.635 157.172 313.635 158.41C313.635 159.649 331.454 160.653 353.435 160.653Z" fill="#FFDA00"/>
</g>
<defs>
<linearGradient id="paint0_linear_7998_243" x1="137.265" y1="111.115" x2="420.779" y2="203.688" gradientUnits="userSpaceOnUse">
<stop stop-color="#FFD54F"/>
<stop offset="1" stop-color="#FEC100"/>
</linearGradient>
</defs>
</svg>
