<svg width="18" height="18" viewBox="0 0 18 18" fill="none" xmlns="http://www.w3.org/2000/svg">
<g clip-path="url(#clip0_7904_253)">
<path d="M6.41109 4.29814C6.41109 2.90551 5.437 1.73697 4.13453 1.4358V0.661897C4.13453 0.296309 3.83822 0 3.47264 0C3.10705 0 2.81074 0.296309 2.81074 0.661897V1.4358C1.50835 1.73689 0.53418 2.90551 0.53418 4.29814C0.53418 5.69077 1.50827 6.85931 2.81074 7.16048V17.3381C2.81074 17.7037 3.10705 18 3.47264 18C3.83822 18 4.13453 17.7037 4.13453 17.3381V7.16048C5.437 6.85931 6.41109 5.69077 6.41109 4.29814ZM1.85805 4.29814C1.85805 3.40781 2.58238 2.68348 3.47271 2.68348C4.36303 2.68348 5.08737 3.40781 5.08737 4.29814C5.08737 5.18846 4.36303 5.9128 3.47271 5.9128C2.58238 5.9128 1.85805 5.18846 1.85805 4.29814Z" fill="#664EF9"/>
<path d="M9.16188 8.89222V0.661897C9.16188 0.296309 8.86557 0 8.49998 0C8.13439 0 7.83808 0.296309 7.83808 0.661897V8.89222C6.53569 9.19331 5.56152 10.3619 5.56152 11.7546C5.56152 13.1472 6.53562 14.3157 7.83808 14.6169V17.3381C7.83808 17.7037 8.13439 18 8.49998 18C8.86557 18 9.16188 17.7037 9.16188 17.3381V14.6169C10.4643 14.3158 11.4384 13.1472 11.4384 11.7546C11.4384 10.3619 10.4643 9.19338 9.16188 8.89222ZM6.88539 11.7546C6.88539 10.8642 7.60973 10.1399 8.50005 10.1399C9.39038 10.1399 10.1147 10.8642 10.1147 11.7546C10.1147 12.6449 9.39038 13.3692 8.50005 13.3692C7.60973 13.3692 6.88539 12.6449 6.88539 11.7546Z" fill="#664EF9"/>
<path d="M16.4658 7.20151C16.4658 5.80888 15.4917 4.64034 14.1892 4.33918V0.661897C14.1892 0.296309 13.8929 0 13.5273 0C13.1617 0 12.8654 0.296309 12.8654 0.661897V4.33918C11.563 4.64027 10.5889 5.80888 10.5889 7.20151C10.5889 8.59415 11.563 9.76269 12.8654 10.0639V17.3381C12.8654 17.7037 13.1617 18 13.5273 18C13.8929 18 14.1892 17.7037 14.1892 17.3381V10.0639C15.4917 9.76269 16.4658 8.59415 16.4658 7.20151ZM11.9127 7.20151C11.9127 6.31119 12.6371 5.58685 13.5274 5.58685C14.4177 5.58685 15.1421 6.31119 15.1421 7.20151C15.1421 8.09184 14.4177 8.81618 13.5274 8.81618C12.6371 8.81618 11.9127 8.09184 11.9127 7.20151Z" fill="#664EF9"/>
</g>
<defs>
<clipPath id="clip0_7904_253">
<rect width="18" height="18" fill="white"/>
</clipPath>
</defs>
</svg>
