<svg width="14" height="15" viewBox="0 0 14 15" fill="none" xmlns="http://www.w3.org/2000/svg">
<path d="M6.71389 0C4.57103 0 2.81934 1.75169 2.81934 3.89456C2.81934 6.03744 4.57103 7.78913 6.71389 7.78913C8.85676 7.78913 10.6085 6.03744 10.6085 3.89456C10.6085 1.75169 8.85676 0 6.71389 0Z" fill="#686868"/>
<path d="M13.3981 10.902C13.2961 10.6469 13.16 10.4088 13.007 10.1877C12.2246 9.03123 11.0172 8.26593 9.65665 8.07886C9.4866 8.06186 9.29952 8.09585 9.16345 8.1979C8.44916 8.72511 7.59884 8.99722 6.71446 8.99722C5.83009 8.99722 4.97976 8.72511 4.26547 8.1979C4.1294 8.09585 3.94233 8.04484 3.77227 8.07886C2.41173 8.26593 1.18725 9.03123 0.421949 10.1877C0.268889 10.4088 0.132821 10.6639 0.0308032 10.902C-0.0202059 11.0041 -0.00321372 11.1231 0.0477954 11.2251C0.183863 11.4632 0.353915 11.7014 0.506975 11.9054C0.745061 12.2286 1.00017 12.5177 1.2893 12.7898C1.52738 13.0279 1.79949 13.2489 2.07162 13.47C3.41515 14.4735 5.0308 15.0006 6.69747 15.0006C8.36414 15.0006 9.97979 14.4734 11.3233 13.47C11.5954 13.266 11.8675 13.0279 12.1056 12.7898C12.3777 12.5177 12.6498 12.2285 12.888 11.9054C13.058 11.6843 13.2111 11.4632 13.3471 11.2251C13.4321 11.1231 13.4491 11.004 13.3981 10.902Z" fill="#686868"/>
</svg>
